# xmcd
#
# Track frame offsets: 
#        150
#        22159
#        36060
#        47184
#        60823
#        69080
#        87282
#        94335
#        106507
#        118765
#        130764
#        147283
#        157977
#
# Disc length: 2352 seconds
#
# Revision: 0
# Processed by: cddbd v1.5.2PL0 Copyright (c) Steve Scherf et al.
# Submitted via: ExactAudioCopy v1.0b4
#
DISCID=a1092e0d
DTITLE=Jimi Hendrix - Axis Bold As Love (LP)
DYEAR=1967
DGENRE=Blues
TTITLE0=exp
TTITLE1=Up From The Skies
TTITLE2=Spanish Castle Magic
TTITLE3=Wait Until Tomorrow
TTITLE4=Ain't No Telling
TTITLE5=Little Wing
TTITLE6=If Six Was Nine
TTITLE7=You've Got Me Floating
TTITLE8=Castles Made Of Sand
TTITLE9=She's So Fine
TTITLE10=One Rainy Wish
TTITLE11=Little Miss Lover
TTITLE12=Bold As Love
EXTD=
EXTT0=
EXTT1=
EXTT2=
EXTT3=
EXTT4=
EXTT5=
EXTT6=
EXTT7=
EXTT8=
EXTT9=
EXTT10=
EXTT11=
EXTT12=
PLAYORDER=
